<?xml version="1.0" encoding="UTF-8" standalone="no"?>
<svg
   xmlns:dc="http://purl.org/dc/elements/1.1/"
   xmlns:cc="http://creativecommons.org/ns#"
   xmlns:rdf="http://www.w3.org/1999/02/22-rdf-syntax-ns#"
   xmlns:svg="http://www.w3.org/2000/svg"
   xmlns="http://www.w3.org/2000/svg"
   xmlns:sodipodi="http://sodipodi.sourceforge.net/DTD/sodipodi-0.dtd"
   xmlns:inkscape="http://www.inkscape.org/namespaces/inkscape"
   id="svg2989"
   version="1.1"
   viewBox="0 0 5.2916665 5.2916665"
   height="5.2916665mm"
   width="5.2916665mm"
   sodipodi:docname="safari-pinned-tab.svg"
   inkscape:version="0.92.1 r15371"
   inkscape:export-filename="/home/adanmauri/Descargas/8cdf2da3657cb7e6b3dbb90ac5369432.ico/android-chrome-512x512.png"
   inkscape:export-xdpi="87.769997"
   inkscape:export-ydpi="87.769997">
  <sodipodi:namedview
     pagecolor="#ffffff"
     bordercolor="#666666"
     borderopacity="1"
     objecttolerance="10"
     gridtolerance="10"
     guidetolerance="10"
     inkscape:pageopacity="0"
     inkscape:pageshadow="2"
     inkscape:window-width="1366"
     inkscape:window-height="707"
     id="namedview10"
     showgrid="false"
     units="mm"
     inkscape:zoom="3.2338796"
     inkscape:cx="-0.53094786"
     inkscape:cy="-20.200986"
     inkscape:window-x="0"
     inkscape:window-y="27"
     inkscape:window-maximized="1"
     inkscape:current-layer="g3958"
     fit-margin-top="0"
     fit-margin-left="0"
     fit-margin-right="0"
     fit-margin-bottom="0" />
  <defs
     id="defs2983" />
  <metadata
     id="metadata2986">
    <rdf:RDF>
      <cc:Work
         rdf:about="">
        <dc:format>image/svg+xml</dc:format>
        <dc:type
           rdf:resource="http://purl.org/dc/dcmitype/StillImage" />
        <dc:title></dc:title>
      </cc:Work>
    </rdf:RDF>
  </metadata>
  <g
     transform="translate(6.6499222,-212.99622)"
     id="layer1">
    <g
       id="g3958"
       transform="matrix(0.05012252,0,0,0.05012252,220.50015,33.248525)">
      <rect
         style="fill:#ffffff;fill-opacity:1;stroke-width:0.17443447"
         id="rect4511"
         width="105.57463"
         height="105.57463"
         x="-4531.8965"
         y="3586.1663"
         ry="10.227542" />
      <g
         id="g4509"
         transform="matrix(0.03571428,0,0,0.03571428,-4370.8835,3560.0731)"
         style="fill:#000000">
        <path
           inkscape:connector-curvature="0"
           id="path3944"
           d="m -3255.955,2282.2199 c -4.3528,-0.3671 -17.0413,-1.0752 -24.6721,-1.3768 -56.9606,-2.2515 -184.8468,-8.9742 -229.6193,-12.0704 -190.4176,-13.1686 -317.9925,-40.1613 -439.6128,-93.0146 -27.2085,-11.8241 -62.3229,-29.0124 -88.1749,-43.1613 -30.7914,-16.8521 -54.9893,-32.5102 -84.39,-54.6074 -69.0778,-51.9182 -132.68,-110.1467 -172.5614,-157.982 -14.1385,-16.9582 -43.6125,-54.8773 -60.5624,-77.9152 -15.092,-20.5127 -23.7313,-31.8389 -25.7079,-33.7033 -0.5539,-0.5224 -0.9268,-1.1478 -0.9268,-1.5543 0,-0.809 -0.01,-0.8232 -8.4421,-13.452 -9.8446,-14.7425 -11.6758,-17.964 -11.9539,-21.0307 -0.1235,-1.3625 -0.024,-1.8521 0.6883,-3.3689 1.8047,-3.8458 8.7227,-14.5056 12.7357,-19.6244 1.2494,-1.5935 3.2951,-4.3318 4.546,-6.0852 1.2509,-1.7532 2.7277,-3.7087 3.2817,-4.3456 0.554,-0.6368 2.4719,-3.1154 4.2619,-5.5079 1.7902,-2.3925 3.9068,-5.0952 4.7039,-6.006 0.797,-0.9108 3.4131,-4.126 5.8137,-7.145 2.4006,-3.0189 5.3189,-6.5613 6.4851,-7.872 4.0111,-4.5082 11.9512,-13.034 16.1182,-17.3074 3.4955,-3.5848 4.3068,-4.2806 4.9904,-4.2806 1.7626,0 4.9914,2.2463 12.2834,8.546 8.4686,7.3162 12.7288,11.4294 56.6338,54.6801 43.9556,43.3008 52.6627,51.6302 68.6895,65.7105 11.6293,10.2167 33.1623,27.757 40.6524,33.1144 2.0481,1.465 4.5577,3.3837 5.577,4.2638 6.7775,5.8523 43.619,29.9797 65.9168,43.1687 35.1907,20.8151 90.2002,48.869 121.3982,61.9111 3.6237,1.5148 9.3852,3.9603 12.8033,5.4343 3.4182,1.474 7.1579,2.9327 8.3106,3.2416 1.1526,0.3089 3.0871,1.0163 4.2989,1.572 4.3045,1.9741 7.4655,3.208 10.3631,4.0453 1.6149,0.4666 3.6568,1.2112 4.5375,1.6548 1.8186,0.916 9.7955,3.8693 12.956,4.7967 1.1565,0.3395 6.4554,2.0681 11.7754,3.8414 6.3925,2.1309 10.0822,3.2234 10.8807,3.2217 0.7351,0 1.9015,0.3119 2.9797,0.8008 0.9745,0.4419 4.2788,1.4911 7.3431,2.3317 3.0642,0.8407 8.2857,2.3507 11.6033,3.3557 3.3176,1.005 7.5441,2.2267 9.3923,2.7148 1.8481,0.488 5.0108,1.3816 7.0281,1.9855 2.0172,0.6041 5.4237,1.482 7.5699,1.9509 2.1461,0.469 7.0561,1.6604 10.9111,2.6478 15.3121,3.9216 51.1663,11.4862 64.4593,13.5997 1.991,0.3165 4.5592,0.8215 5.7072,1.1222 1.1479,0.3007 3.9369,0.8023 6.1976,1.1146 2.2607,0.3124 4.9587,0.8105 5.9955,1.107 1.0368,0.2965 3.8733,0.8097 6.3034,1.1405 2.4301,0.3307 6.8154,1.0287 9.7452,1.5511 2.9298,0.5223 7.3456,1.2608 9.8128,1.6412 2.4672,0.3803 9.0278,1.4488 14.579,2.3746 11.3589,1.8943 25.9829,4.0912 35.6064,5.349 26.2173,3.4267 30.7712,3.974 44.4379,5.3411 4.7031,0.4704 10.0651,1.0991 11.9155,1.3971 1.8505,0.298 6.077,0.7398 9.3923,0.9816 3.3153,0.2419 8.6142,0.6293 11.7753,0.861 3.1611,0.2315 6.6938,0.5402 7.8503,0.6858 4.6588,0.5864 14.4963,1.0998 51.0265,2.663 25.6704,1.0985 39.3689,1.3237 110.8845,1.8229 118.1301,0.8246 139.4264,1.0695 148.2184,1.7049 5.5662,0.4022 5.6278,0.4228 6.0274,2.0186 0.1789,0.7144 0.5291,2.7878 0.7783,4.6074 4.5288,33.0659 5.3036,39.0408 7.9904,61.6243 4.2027,35.3247 5.5453,47.5364 8.6921,79.063 2.7729,27.7797 6.0694,63.741 7.2991,79.6239 0.1672,2.1588 0.3603,4.2721 0.429,4.6961 0.1473,0.9073 0.5455,0.8854 -6.0288,0.3308 z"
           style="fill:#000000;stroke-width:0.28036535" />
        <path
           inkscape:connector-curvature="0"
           style="fill:#000000;stroke-width:0.28036535"
           d="m -2494.3747,3558.7001 c -10.4358,-3.1319 -65.3289,-37.6149 -125.1832,-78.6378 -81.1282,-55.6039 -124.8555,-91.4451 -187.6614,-153.8176 -56.2993,-55.9107 -103.0516,-111.1197 -146.257,-172.7123 -56.5532,-80.6211 -106.3018,-173.025 -144.3021,-268.0293 -18.9792,-47.4499 -40.2913,-110.3072 -55.3245,-163.1726 -11.7627,-41.3648 -33.5798,-131.1228 -45.9652,-189.1065 -16.9185,-79.2056 -27.5153,-149.592 -44.4467,-295.2247 -2.2265,-19.1509 -5.1671,-44.0276 -7.4236,-62.8019 -4.5566,-37.9119 -9.9005,-84.5049 -12.4604,-108.6416 -4.0646,-38.3238 -4.469,-42.4702 -6.6044,-67.7082 -4.342,-51.3163 -7.879,-75.5185 -11.7849,-80.6395 -0.8421,-1.1039 -1.6128,-1.2044 -3.1645,-0.4128 -6.3801,3.2548 -32.9835,28.7265 -88.9483,85.1641 -12.6661,12.7731 -25.595,25.7967 -28.731,28.9412 l -5.7016,5.7175 -27.5621,-0.1682 c -15.1591,-0.092 -31.2838,-0.2967 -35.8328,-0.4538 -28.4689,-0.9832 -43.8768,-1.9342 -48.5957,-2.9993 -4.2595,-0.9615 -6.7397,-3.0802 -5.7703,-4.9292 0.47,-0.8965 4.461,-5.181 12.8154,-13.758 10.7958,-11.0836 24.7037,-25.6246 37.205,-38.8986 31.2912,-33.2256 57.0875,-59.8598 133.3214,-137.652 15.0357,-15.343 32.3189,-32.9808 38.4072,-39.1951 6.0883,-6.2143 11.1072,-11.5242 11.1532,-11.7998 0.046,-0.2756 -0.361,-3.7073 -0.9044,-7.6259 -1.2746,-9.1916 -2.1174,-15.9529 -5.204,-41.7501 -5.9728,-49.9192 -8.8246,-68.8322 -11.6651,-77.3639 -1.4981,-4.4994 -2.1666,-5.344 -4.2303,-5.3435 -2.2941,0 -6.5368,2.7973 -15.088,9.9464 -39.6674,33.163 -142.8758,139.1026 -270.4122,277.568 -45.703,49.6195 -66.2465,71.1539 -71.5611,75.0128 -1.6547,1.2014 -3.9487,1.4956 -10.1453,1.3012 -11.7627,-0.3691 -33.4724,-3.7699 -59.598,-9.3357 -21.1258,-4.5008 -26.506,-6.4711 -26.4148,-9.6738 0.1044,-3.673 14.837,-21.3681 46.9033,-56.3346 7.9059,-8.6208 17.455,-19.2829 27.6109,-30.8288 50.4206,-57.3215 167.7739,-179.5532 287.0121,-298.9429 49.5715,-49.6347 58.5065,-58.9879 65.0636,-68.1088 2.2689,-3.1558 5.1052,-8.7929 6.533,-12.9838 1.0317,-3.0284 1.0508,-3.1618 1.0654,-7.4295 0.026,-7.5439 -1.0318,-12.9428 -8.4296,-43.036 -7.0742,-28.7764 -10.6253,-41.6369 -13.7081,-49.645 -2.2134,-5.75 -3.4726,-7.6889 -4.9947,-7.6909 -2.7638,0 -16.0171,11.555 -44.3385,38.6695 -49.3312,47.2287 -153.3762,151.1357 -209.1721,208.8947 -27.86,28.8401 -38.9408,40.5996 -80.3108,85.2305 -7.9329,8.5582 -19.4824,20.9855 -25.6656,27.6161 -16.9393,18.1652 -23.6398,25.5172 -43.3099,47.5219 -13.4147,15.0068 -28.9457,32.196 -42.0738,46.5661 -11.4323,12.5137 -26.4394,29.1978 -38.8048,43.1414 -5.3969,6.0856 -11.6283,13.0877 -13.8475,15.5603 -18.4704,20.5786 -25.5946,26.5953 -34.0948,28.7949 -2.0701,0.5356 -3.2032,0.6488 -6.3082,0.6304 -3.4087,-0.02 -4.1613,-0.1223 -7.5699,-1.0261 -6.4512,-1.7104 -13.9753,-4.5435 -33.9242,-12.7733 -14.9075,-6.1499 -19.9583,-8.4918 -22.7329,-10.5401 -1.595,-1.1775 -2.3438,-2.6328 -2.0852,-4.0523 0.2472,-1.3569 2.0644,-4.7098 3.7191,-6.8623 5.3491,-6.9584 18.7659,-22.3203 61.7501,-70.7024 15.344,-17.2709 32.2477,-36.3218 37.5637,-42.3352 35.756,-40.4465 52.5671,-59.0168 79.0603,-87.3324 52.4863,-56.0969 113.5563,-118.6191 258.6543,-264.8051 58.1446,-58.5807 96.1056,-97.0999 104.9202,-106.4634 11.2781,-11.9802 21.7297,-24.6568 25.3922,-30.7972 3.2769,-5.4942 3.8759,-8.3717 2.7117,-13.0278 -2.3126,-9.2502 -10.092,-30.3376 -19.2924,-52.2965 -4.2302,-10.096 -8.1207,-20.2365 -9.2967,-24.2312 -0.4994,-1.6962 -1.2649,-3.8725 -1.7012,-4.8363 l -0.7933,-1.7522 -1.2091,2e-4 c -5.7729,0 -24.6265,15.9767 -78.5819,66.5865 -44.3004,41.5537 -85.7759,81.8378 -136.9665,133.0325 -88.7773,88.7843 -175.6744,179.8559 -259.3558,271.8152 -33.6694,36.9996 -62.8487,69.9667 -114.6476,129.5287 -24.8721,28.5998 -33.2456,37.8795 -42.755,47.3825 -6.3404,6.3361 -7.7954,7.5279 -9.1434,7.4896 -3.5179,-0.1 -31.1776,-17.7169 -50.0137,-31.8545 -7.0465,-5.2889 -10.238,-8.1489 -10.238,-9.1747 0,-2.717 64.6314,-79.2062 96.8441,-114.6119 8.0165,-8.8111 21.8987,-24.3813 35.7657,-40.1145 15.7472,-17.8665 39.3712,-43.9413 51.4336,-56.7693 20.2563,-21.5421 28.0988,-29.9041 46.4151,-49.4893 28.0328,-29.9747 45.0007,-47.8615 67.1493,-70.7856 63.7928,-66.027 138.9201,-141.1136 234.5266,-234.4 39.9061,-38.9379 52.5199,-50.9462 81.8657,-77.9372 15.9984,-14.7147 22.1718,-20.5836 32.1188,-30.5349 5.4064,-5.4087 10.4215,-10.6352 11.1445,-11.6142 1.6361,-2.215 1.6733,-2.9492 0.3369,-6.6408 -8.9319,-24.675 -40.3829,-74.6005 -71.6126,-113.6783 -17.3509,-21.711 -45.4013,-52.18761 -75.4808,-82.0092 -19.6152,-19.44701 -32.1685,-31.03399 -45.1004,-41.62882 -9.2959,-7.61586 -15.9222,-13.72467 -19.6187,-18.08663 -3.3322,-3.93204 -3.6095,-4.74448 -2.4197,-7.08851 2.577,-5.07689 14.0425,-16.18602 25.5429,-24.74899 7.3756,-5.49175 12.4625,-8.39029 16.4919,-9.39715 1.8693,-0.46716 1.9716,-0.46365 4.4858,0.15114 14.5456,3.55704 75.4505,33.24931 117.5228,57.29441 57.3586,32.78154 112.3502,72.6346 161.7656,117.23355 20.4934,18.496 45.1761,43.176 62.4037,62.3971 53.5591,59.7566 95.9499,126.3671 135.3306,212.6508 18.3829,40.2775 32.401,82.2364 52.2196,156.3037 12.2666,45.8434 23.3045,103.0335 31.6554,164.0137 9.8236,71.7342 17.5159,149.462 31.2838,316.1119 27.6246,224.605 40.5232,431.9983 107.6085,608.6733 15.8636,41.6384 39.7862,99.9924 45.1969,110.2478 0.8321,1.5773 2.2236,4.6684 3.092,6.869 4.1276,10.4591 15.6919,33.99 22.2114,45.1956 1.1602,1.994 2.5263,4.528 3.0361,5.6312 0.5096,1.1031 1.7686,3.1783 2.7978,4.6116 3.181,4.4299 7.2032,11.1998 16.2205,27.3012 10.902,19.4667 19.3971,33.6807 32.1144,53.7341 7.6937,12.1317 12.0407,19.1014 15.6503,25.0927 3.7368,6.2022 6.4389,10.0371 11.4824,16.2967 4.3159,5.3564 7.6503,9.7599 11.399,15.0536 3.5514,5.0151 5.3939,7.2121 6.3516,7.5736 0.4943,0.1866 0.8249,0.5558 0.9191,1.0267 0.5001,2.5003 13.343,19.3163 30.1032,39.4158 22.3556,26.8096 54.7052,61.3724 100.442,107.3136 35.5579,35.717 63.0334,61.9987 84.1168,80.4623 37.9326,33.2191 108.0395,86.1498 142.0046,107.2134 7.019,4.3529 19.671,12.3893 36.4144,23.13 54.2534,34.803 92.3332,57.7935 116.3851,70.2669 21.9392,11.3778 23.4986,12.2568 25.6394,14.4529 1.6563,1.6989 1.6784,2.6179 0.1127,4.6893 -2.1764,2.8794 -9.3406,10.2524 -18.076,18.6026 -15.3698,14.6922 -17.8849,17.0396 -41.4601,38.6962 -20.0028,18.3751 -34.1386,31.4526 -52.4275,48.5029 -59.9597,55.8988 -111.1377,102.7172 -136.6789,125.0362 -3.39,2.9624 -7.5241,6.3653 -8.5888,7.07 -0.9059,0.5994 -3.5452,1.4972 -4.308,1.4653 -0.1542,-0.01 -1.2266,-0.2956 -2.3831,-0.6427 z"
           id="path3901" />
        <path
           inkscape:connector-curvature="0"
           style="fill:#000000;stroke-width:0.28036535"
           d="m -2512.5705,3059.0654 c -11.157,-7.1619 -19.095,-12.4552 -23.6347,-15.7604 -11.9313,-8.6867 -16.7631,-14.381 -15.9259,-18.7685 0.4192,-2.197 5.5483,-7.8878 21.1723,-23.4909 23.7037,-23.6723 66.1864,-63.5728 113.7128,-106.8014 25.0453,-22.7804 80.1341,-73.9621 106.6745,-99.1087 29.6854,-28.1266 35.8479,-34.0973 84.318,-81.6934 28.1225,-27.6154 37.2965,-36.8402 40.3086,-40.5315 l 1.1215,-1.3745 v -2.7037 c 0,-2.5542 -0.057,-2.8194 -1.0367,-4.792 -2.0443,-4.1177 -6.6791,-9.0177 -17.6076,-18.6148 -17.273,-15.1685 -35.6763,-29.5124 -42.3591,-33.0154 -3.296,-1.7277 -4.6495,-1.2927 -10.5855,3.4024 -11.8512,9.3737 -33.147,29.2766 -84.0173,78.5218 -30.3973,29.4261 -33.5921,32.4729 -69.5325,66.3096 -35.8091,33.7131 -38.9998,36.7042 -53.4043,50.0638 -43.2267,40.0909 -81.0758,74.2805 -117.6133,106.2417 -31.0054,27.1222 -46.9621,40.1388 -52.7065,42.9954 -4.444,2.21 -5.995,1.6606 -9.7658,-3.4596 -2.3763,-3.2266 -10.2794,-11.202 -17.0113,-17.1668 -5.8079,-5.1462 -11.2406,-10.6743 -13.6713,-13.9114 -2.3038,-3.0684 -4.0868,-6.7412 -4.1125,-8.4715 -0.038,-2.5535 2.5067,-5.4857 19.182,-22.104 31.0971,-30.9909 68.7578,-66.4718 120.5608,-113.5827 54.5167,-49.5789 103.5765,-95.3947 143.955,-134.4364 38.787,-37.503 60.3413,-59.7065 71.852,-74.0165 4.7771,-5.9388 6.2644,-8.9905 5.3996,-11.0785 -0.1908,-0.4606 -1.8449,-2.2817 -3.6759,-4.0469 -8.1316,-7.84 -28.4051,-22.8961 -38.5326,-28.6165 -1.8421,-1.0405 -4.218,-2.5883 -5.28,-3.4397 -4.9919,-4.002 -15.1369,-9.1407 -21.4881,-10.8841 -2.5367,-0.6964 -6.3419,-0.6336 -8.5147,0.1404 -5.9564,2.1219 -10.6196,6.0683 -35.6345,30.1567 -30.3367,29.2131 -50.873,48.7396 -79.6288,75.7135 -39.3723,36.9323 -58.3154,54.4548 -104.5652,96.7236 -16.2922,14.8898 -24.3228,22.2531 -37.3093,34.2087 -5.6973,5.2452 -15.8469,14.5182 -22.5546,20.6069 -34.1181,30.9693 -64.8425,58.9456 -68.2539,62.1488 -5.7899,5.4363 -6.8228,6.3272 -7.1222,6.1421 -0.1511,-0.093 -2.6495,-3.1023 -5.5521,-6.6865 -6.6062,-8.1577 -9.527,-11.4046 -10.9166,-12.1354 -1.107,-0.5823 -1.2454,-0.7834 -2.4017,-3.4892 -0.4868,-1.139 -1.4108,-2.3005 -3.5621,-4.4779 -1.5978,-1.617 -3.3495,-3.6374 -3.8929,-4.4899 -0.5434,-0.8525 -3.2886,-4.6409 -6.1004,-8.4189 -6.1585,-8.2746 -9.4524,-13.085 -11.1027,-16.2147 l -1.2321,-2.3367 6.7288,-6.596 c 11.6139,-11.3847 28.8507,-27.5546 50.7461,-47.6047 18.6271,-17.0571 30.3943,-27.8879 35.1859,-32.3857 5.0345,-4.7258 13.2317,-12.1926 28.3169,-25.7942 30.7773,-27.7502 64.4561,-58.9929 104.8566,-97.272 24.5115,-23.2243 57.232,-55.7356 81.2877,-80.7679 9.5508,-9.9385 13.1929,-13.995 16.5525,-18.4359 2.3936,-3.1641 2.7747,-3.8083 2.5268,-4.2714 -0.4959,-0.9267 -4.2379,-3.6327 -8.021,-5.8004 -4.6064,-2.6395 -26.6248,-13.6511 -37.3944,-18.7012 -20.7285,-9.7204 -45.5898,-20.7232 -46.1244,-20.4132 -0.3231,0.1874 -10.6259,9.6841 -56.3517,51.9425 -9.2534,8.5518 -19.9131,18.3874 -23.6881,21.857 -3.775,3.4695 -10.4637,9.6515 -14.8638,13.7379 -8.9617,8.3226 -24.9706,23.0316 -44.8542,41.2117 -7.3246,6.6972 -20.1933,18.4948 -28.5973,26.2171 -42.44,38.9975 -91.9094,82.4836 -112.2863,98.7052 -6.9029,5.4954 -9.4303,7.1344 -10.9931,7.1291 -1.2505,0 -3.6875,-1.546 -3.8784,-2.4536 -0.2572,-1.2237 -0.5262,-1.568 -1.7656,-2.2609 -0.9424,-0.5268 -1.1371,-0.7689 -1.0145,-1.2616 0.1522,-0.6121 -0.5273,-1.8108 -2.4109,-4.2532 -0.5965,-0.7734 -0.8233,-1.3318 -0.7329,-1.8046 0.1663,-0.8702 -0.043,-1.421 -0.5406,-1.421 -0.8504,0 -3.2183,-3.9935 -3.8641,-6.5172 -0.2959,-1.1562 -0.5147,-1.4964 -1.0446,-1.625 -0.5538,-0.1344 -0.6557,-0.3137 -0.5858,-1.0308 0.063,-0.6451 -0.08,-0.983 -0.5537,-1.3151 -0.4841,-0.3392 -0.6188,-0.6716 -0.5581,-1.3769 0.062,-0.7257 -0.1721,-1.2646 -1.0683,-2.4528 -0.8019,-1.0632 -1.1036,-1.7052 -0.9998,-2.1268 0.1157,-0.47 -0.068,-0.7322 -0.8312,-1.1821 -0.539,-0.318 -1.1557,-0.9924 -1.3706,-1.4988 -0.2149,-0.5064 -1.3724,-3.3177 -2.5722,-6.2475 -1.1998,-2.9299 -3.741,-8.9021 -5.6472,-13.2716 -3.9605,-9.0785 -4.8605,-11.5583 -5.0532,-13.9239 -0.2907,-3.5683 0.9739,-5.5584 6.9633,-10.9577 2.2201,-2.0014 7.8203,-7.0414 12.4448,-11.2 8.525,-7.6661 35.23,-31.9156 64.069,-58.178 8.7139,-7.9353 17.7977,-16.1919 20.1862,-18.348 14.5738,-13.155 36.1719,-33.2174 61.117,-56.7714 33.7517,-31.8695 58.1671,-56.5406 64.6757,-65.3532 2.4765,-3.353 2.643,-4.4759 0.8868,-5.979 -3.3433,-2.8618 -13.6673,-7.7931 -22.61,-10.7997 -4.2952,-1.4442 -12.5771,-3.5735 -17.1589,-4.4117 -1.817,-0.3325 -2.911,-0.6889 -3.4423,-1.1216 -0.862,-0.702 -5.2061,-2.1761 -9.7349,-3.303 -3.3732,-0.8395 -9.7311,-2.8934 -12.5324,-4.0485 -2.5763,-1.0624 -4.6713,-1.5343 -6.0125,-1.3545 -1.0727,0.1439 -1.1111,0.1216 -1.0274,-0.597 0.086,-0.7362 0.063,-0.7466 -1.6164,-0.7466 -1.4866,0 -1.79,-0.095 -2.3831,-0.7453 -0.766,-0.8399 -2.3275,-1.3803 -6.0067,-2.079 -1.3879,-0.2636 -3.2016,-0.7769 -4.0308,-1.1408 -3.8837,-1.7044 -9.8563,-1.4563 -18.1992,0.7561 -5.6343,1.494 -10.0504,3.7295 -16.6006,8.4035 -13.6509,9.7406 -32.4187,25.94 -61.544,53.1215 -34.4651,32.1649 -64.5074,58.3084 -78.6663,68.4574 -5.2402,3.7561 -7.1745,4.5029 -12.3748,4.778 -2.4373,0.1288 -3.2476,0.068 -4.2579,-0.3174 -1.2368,-0.4723 -1.2552,-0.4992 -2.094,-3.0534 -0.4655,-1.4174 -1.6145,-5.2708 -2.5534,-8.5633 -1.7596,-6.1697 -4.5672,-15.4012 -8.4241,-27.6972 -4.6761,-14.9079 -10.1235,-35.4977 -9.6169,-36.3492 1.8136,-3.0488 14.5433,-16.0502 45.9169,-46.897 21.7586,-21.3934 32.2243,-32.3582 33.9582,-35.5778 0.5383,-0.9997 0.5383,-1.0174 -0.016,-2.0494 -0.3497,-0.6514 -1.1129,-1.372 -2.0397,-1.9255 -3.0265,-1.8078 -13.724,-4.889 -24.593,-7.0836 -17.6418,-3.5624 -41.8917,-6.7559 -51.3,-6.7559 -11.2189,0 -21.6966,-4.5061 -26.2167,-11.2749 -2.734,-4.0943 -5.305,-16.0601 -11.2218,-52.2278 -5.9832,-36.5736 -8.4799,-51.5229 -9.5179,-56.9927 -1.2261,-6.46 -2.9546,-17.3657 -3.2314,-20.3883 -0.173,-1.8886 -0.9695,-7.4317 -1.5714,-10.9342 -0.2593,-1.5091 -1.2724,-6.0347 -2.385,-10.6539 -0.2229,-0.9252 -0.841,-5.4671 -1.3737,-10.0931 -0.5327,-4.6261 -1.4733,-12.7637 -2.0903,-18.0836 -2.4738,-21.3303 -4.8925,-45.0104 -5.6131,-54.9516 -0.5792,-7.9911 -1.1262,-20.0211 -0.9193,-20.2197 0.43,-0.4129 7.6257,-1.6827 11.285,-1.9914 5.0103,-0.4226 48.892,-0.4006 63.643,0.032 16.7393,0.4909 62.9317,2.8913 84.3899,4.3855 3.3153,0.2308 13.9762,1.0457 23.6908,1.8109 9.7147,0.7652 23.5928,1.8412 30.8402,2.3911 25.7972,1.9575 65.3907,5.7505 101.0717,9.6827 13.4502,1.4823 55.9832,6.8144 61.2983,7.6846 2.2919,0.3752 8.3305,1.3269 13.4191,2.1149 10.4584,1.6195 28.0685,4.5672 40.8283,6.8343 7.2667,1.2909 16.4354,2.6759 20.8699,3.1522 0.7374,0.079 1.4448,0.4014 2.0051,0.9131 1.0383,0.9484 2.7883,1.4222 8.8909,2.4071 2.4469,0.3949 5.6604,1.0942 7.1411,1.554 5.6854,1.7654 34.833,8.1896 43.8662,9.6683 0.6305,0.1032 1.3586,0.4757 1.7453,0.893 0.6222,0.6713 0.7746,0.7039 2.4491,0.5247 1.7242,-0.1847 1.8025,-0.1653 2.2821,0.5666 0.492,0.7509 0.5189,0.7563 2.8897,0.589 2.2276,-0.1572 2.447,-0.1235 3.1711,0.4858 1.5349,1.2915 10.7753,3.8474 14.1717,3.9201 1.0984,0.024 2.1805,0.1947 2.4044,0.3806 1.8941,1.5719 15.4688,5.3968 19.1535,5.3968 0.6915,0 1.2572,0.1241 1.2572,0.2757 0,1.0644 12.426,5.1405 16.8413,5.5246 1.5213,0.1323 1.887,0.2636 2.1027,0.7547 0.2186,0.4977 0.5416,0.6078 1.9861,0.6771 1.5094,0.073 1.7448,0.1601 1.8823,0.7009 0.1362,0.5354 0.6564,0.7391 3.8822,1.5202 2.0488,0.4962 6.6899,1.7755 10.3136,2.8431 7.5404,2.2214 12.0728,3.2354 13.3724,2.9918 0.7268,-0.1364 0.9563,-0.055 1.2156,0.4291 0.4514,0.8436 2.7316,1.8102 6.2078,2.6316 1.6417,0.3879 3.4443,0.9763 4.0057,1.3075 0.8037,0.4743 1.2853,0.5661 2.2644,0.4319 1.0296,-0.1412 1.417,-0.053 2.2523,0.5142 2.0801,1.4115 16.8012,6.7537 20.4237,7.4116 0.9126,0.1657 1.8595,0.4824 2.1041,0.7038 1.6158,1.4624 26.7356,10.5839 30.3139,11.0077 0.8797,0.1042 1.389,0.3001 1.389,0.5342 0,0.8803 5.8276,3.4115 8.5466,3.7122 1.3784,0.1524 1.6981,0.2862 1.7834,0.7464 0.1992,1.0751 0.6237,1.3117 2.0112,1.1207 1.2008,-0.1651 1.3456,-0.1189 1.799,0.573 0.4405,0.6723 0.6118,0.7335 1.609,0.574 0.9493,-0.1518 1.2487,-0.066 2.0055,0.5748 2.3971,2.0294 17.9261,8.0783 21.4524,8.3562 1.0859,0.086 1.3261,0.2094 1.4536,0.7492 0.1893,0.8021 1.7302,1.6078 9.8051,5.1261 3.3153,1.4445 9.0558,4.0428 12.7566,5.7741 12.0093,5.618 18.0997,8.1323 19.6991,8.1323 0.458,0 0.9673,0.2716 1.3178,0.7028 0.7843,0.9649 7.13,4.4091 16.0702,8.7223 34.435,16.613 59.6767,30.4735 90.3024,49.5856 6.4792,4.0434 9.2617,5.4734 10.6507,5.4734 0.2943,0 0.5978,0.2401 0.6747,0.5336 0.4149,1.5867 16.1654,12.2714 23.0356,15.6266 1.3766,0.6723 2.7959,1.2224 3.1541,1.2224 0.4825,0 0.6511,0.1585 0.6511,0.6123 0,0.9806 2.1957,2.8313 9.1213,7.6886 19.911,13.9646 29.5131,20.3135 31.5526,20.8627 0.6036,0.1626 1.1361,0.5059 1.2266,0.7908 0.2239,0.7053 5.2836,4.8591 12.289,10.0885 3.2719,2.4424 11.2478,8.3934 17.7242,13.2244 51.686,38.5545 84.0441,66.9891 132.6957,116.6057 47.4908,48.4328 84.402,88.7973 116.1659,127.0339 12.7435,15.3403 17.6371,21.5319 37.1161,46.9612 21.203,27.6797 27.6206,36.3605 36.5838,49.4845 5.439,7.9639 11.9588,17.133 17.9421,25.2329 12.2563,16.5921 23.3383,34.3353 30.5565,48.9238 3.2182,6.5041 4.4923,9.9171 4.4827,12.0079 -0.021,4.5567 -4.6539,10.5681 -22.286,28.9171 -11.0548,11.5043 -17.7599,18.577 -28.3133,29.8654 -16.2561,17.3884 -22.4666,23.8827 -52.2825,54.672 -53.1345,54.8693 -91.3024,93.7691 -109.9,112.007 -13.4983,13.2372 -17.9399,17.2425 -19.1207,17.2425 -0.3613,0 -1.4656,-0.8863 -2.8817,-2.313 -4.6609,-4.6958 -9.9934,-11.5163 -31.735,-40.5906 -33.539,-44.8507 -49.8661,-65.636 -86.9852,-110.7366 -27.1395,-32.9753 -39.7312,-47.7987 -59.1747,-69.663 -17.9629,-20.1994 -27.9228,-30.9235 -38.8149,-41.7935 -10.1958,-10.175 -13.7233,-12.9127 -17.3303,-13.4502 -2.8738,-0.4282 -6.7152,1.481 -12.4162,6.1711 -5.5293,4.549 -10.241,9.0299 -34.4849,32.7962 -25.3709,24.8711 -37.7589,36.913 -64.2037,62.4101 -47.424,45.7245 -178.2778,169.0613 -202.2861,190.6657 -18.5143,16.6602 -28.2156,24.9137 -40.6505,34.5836 -4.5489,3.5375 -11.4559,8.9279 -15.3488,11.9787 -3.8929,3.0508 -7.1101,5.5399 -7.1494,5.5311 -0.039,-0.01 -3.6038,-2.2835 -7.9214,-5.0551 z"
           id="path3899" />
      </g>
    </g>
  </g>
</svg>
