<?xml version="1.0" encoding="UTF-8" standalone="no"?>
<svg
   xmlns:dc="http://purl.org/dc/elements/1.1/"
   xmlns:cc="http://creativecommons.org/ns#"
   xmlns:rdf="http://www.w3.org/1999/02/22-rdf-syntax-ns#"
   xmlns:svg="http://www.w3.org/2000/svg"
   xmlns="http://www.w3.org/2000/svg"
   id="svg4714"
   version="1.1"
   viewBox="0 0 210 297"
   height="297mm"
   width="210mm">
  <defs
     id="defs4708" />
  <metadata
     id="metadata4711">
    <rdf:RDF>
      <cc:Work
         rdf:about="">
        <dc:format>image/svg+xml</dc:format>
        <dc:type
           rdf:resource="http://purl.org/dc/dcmitype/StillImage" />
        <dc:title></dc:title>
      </cc:Work>
    </rdf:RDF>
  </metadata>
  <g
     id="layer1">
    <g
       id="g3958"
       transform="matrix(0.05012252,0,0,0.05012252,266.7004,19.599525)">
      <path
         style="fill:#8757b1;stroke-width:0.31999999"
         d="m -3315.4642,2344.8779 c -4.9682,-0.419 -19.4504,-1.2272 -28.16,-1.5715 -65.013,-2.5698 -210.9782,-10.2428 -262.08,-13.7768 -217.3366,-15.0302 -362.9465,-45.8388 -501.76,-106.1638 -31.0549,-13.4957 -71.1333,-33.1139 -100.64,-49.2629 -35.1443,-19.2345 -62.763,-37.1061 -96.32,-62.3272 -78.8432,-59.2577 -151.4367,-125.7179 -196.956,-180.3155 -16.1373,-19.3556 -49.7779,-62.6352 -69.124,-88.9299 -17.2255,-23.4126 -27.0861,-36.3399 -29.3422,-38.4679 -0.6322,-0.5963 -1.0578,-1.3101 -1.0578,-1.7741 0,-0.9233 -0.01,-0.9395 -9.6355,-15.3536 -11.2364,-16.8266 -13.3264,-20.5036 -13.6438,-24.0038 -0.141,-1.5551 -0.027,-2.1139 0.7856,-3.8451 2.0598,-4.3895 9.9558,-16.5563 14.5361,-22.3987 1.426,-1.8188 3.7609,-4.9442 5.1886,-6.9454 1.4278,-2.0011 3.1133,-4.2331 3.7457,-4.96 0.6323,-0.7268 2.8213,-3.5558 4.8644,-6.2865 2.0432,-2.7307 4.4591,-5.8155 5.3688,-6.8551 0.9097,-1.0395 3.8957,-4.7093 6.6356,-8.155 2.74,-3.4457 6.0708,-7.4889 7.4019,-8.9849 4.5782,-5.1455 13.6407,-14.8766 18.3968,-19.7541 3.9897,-4.0916 4.9156,-4.8858 5.6959,-4.8858 2.0118,0 5.697,2.5639 14.0199,9.7542 9.6657,8.3504 14.5282,13.0451 64.64,62.4101 50.1695,49.4221 60.1075,58.929 78.4,74.9998 13.2732,11.6611 37.8503,31.681 46.3993,37.7958 2.3376,1.672 5.202,3.862 6.3654,4.8665 7.7356,6.6796 49.7853,34.2179 75.2353,49.2714 40.1656,23.7577 102.9516,55.7775 138.56,70.6633 4.136,1.729 10.712,4.5202 14.6133,6.2026 3.9014,1.6823 8.1698,3.3472 9.4854,3.6998 1.3156,0.3526 3.5236,1.16 4.9067,1.7943 4.913,2.2531 8.5209,3.6615 11.8281,4.6171 1.8432,0.5326 4.1737,1.3825 5.1789,1.8888 2.0757,1.0454 11.1803,4.4162 14.7876,5.4748 1.32,0.3874 7.368,2.3604 13.44,4.3844 7.2962,2.4322 11.5076,3.6791 12.4189,3.6772 0.8391,0 2.1703,0.356 3.401,0.914 1.1122,0.5043 4.8836,1.7019 8.3811,2.6613 3.4974,0.9595 9.4571,2.683 13.2437,3.8301 3.7866,1.1471 8.6106,2.5415 10.72,3.0986 2.1094,0.557 5.7192,1.5769 8.0217,2.2662 2.3024,0.6894 6.1904,1.6914 8.64,2.2266 2.4495,0.5353 8.0536,1.8952 12.4536,3.0221 17.4767,4.476 58.3996,13.11 73.5718,15.5223 2.2724,0.3613 5.2037,0.9377 6.514,1.2809 1.3102,0.3432 4.4934,0.9157 7.0737,1.2721 2.5803,0.3566 5.6597,0.9251 6.8431,1.2635 1.1834,0.3384 4.4209,0.9242 7.1945,1.3017 2.7736,0.3775 7.7789,1.1742 11.1229,1.7704 3.344,0.5962 8.384,1.4391 11.2,1.8732 2.816,0.4341 10.304,1.6537 16.64,2.7103 12.9647,2.1621 29.656,4.6696 40.64,6.1052 29.9236,3.9111 35.1212,4.5358 50.72,6.0962 5.368,0.5369 11.488,1.2545 13.6,1.5946 2.112,0.3401 6.936,0.8443 10.72,1.1203 3.784,0.2761 9.832,0.7183 13.44,0.9827 3.608,0.2643 7.64,0.6166 8.96,0.7828 5.3174,0.6693 16.5457,1.2553 58.24,3.0395 29.2994,1.2538 44.9345,1.5108 126.56,2.0806 134.83,0.9411 159.1369,1.2207 169.1718,1.9459 6.353,0.4591 6.4234,0.4826 6.8794,2.3039 0.2042,0.8155 0.604,3.1819 0.8884,5.2588 5.169,37.7403 6.0533,44.5599 9.12,70.336 4.7968,40.3185 6.3292,54.2565 9.9209,90.24 3.1648,31.7068 6.9274,72.7519 8.3309,90.8801 0.1908,2.464 0.4112,4.876 0.4897,5.36 0.1681,1.0355 0.6226,1.0105 -6.8811,0.3776 z"
         id="path3944" />
      <path
         id="path3901"
         d="m -2446.221,3801.8113 c -11.911,-3.5746 -74.5643,-42.9324 -142.88,-89.7547 -92.5972,-63.4645 -142.5061,-104.3725 -214.1907,-175.5624 -64.2582,-63.8147 -117.6198,-126.8285 -166.9331,-197.1283 -64.548,-92.0183 -121.3294,-197.4851 -164.7017,-305.92 -21.6623,-54.1578 -45.9872,-125.9011 -63.1456,-186.24 -13.4256,-47.2124 -38.3269,-149.6593 -52.4632,-215.84 -19.3103,-90.4028 -31.4051,-170.7395 -50.7301,-336.96 -2.5412,-21.8582 -5.8975,-50.2517 -8.473,-71.6801 -5.2008,-43.2714 -11.3001,-96.4512 -14.2219,-124 -4.6392,-43.7416 -5.1008,-48.4741 -7.5381,-77.28 -4.9558,-58.5708 -8.9928,-86.1944 -13.4509,-92.0393 -0.9611,-1.26 -1.8408,-1.3747 -3.6119,-0.4712 -7.282,3.715 -37.6463,32.7875 -101.5227,97.2036 -14.4567,14.5788 -29.2133,29.4435 -32.7926,33.0326 l -6.5077,6.5257 -31.4584,-0.192 c -17.3021,-0.1055 -35.7064,-0.3386 -40.8984,-0.5179 -32.4935,-1.1222 -50.0796,-2.2076 -55.4656,-3.4233 -4.8617,-1.0974 -7.6925,-3.5157 -6.586,-5.6261 0.5364,-1.0232 5.0916,-5.9134 14.627,-15.7029 12.322,-12.6504 28.1961,-29.2471 42.4646,-44.3976 35.7148,-37.9226 65.1579,-68.322 152.1688,-157.1116 17.1612,-17.512 36.8877,-37.6432 43.8367,-44.736 6.949,-7.0928 12.6774,-13.1533 12.7299,-13.4679 0.053,-0.3146 -0.412,-4.2314 -1.0322,-8.704 -1.4548,-10.491 -2.4167,-18.2081 -5.9397,-47.6522 -6.8172,-56.9762 -10.0721,-78.5628 -13.3142,-88.3006 -1.7098,-5.1355 -2.4729,-6.0995 -4.8283,-6.099 -2.6184,0 -7.4609,3.1928 -17.221,11.3526 -45.275,37.8511 -163.0738,158.7672 -308.6397,316.8071 -52.164,56.6342 -75.6117,81.2128 -81.6776,85.6172 -1.8886,1.3713 -4.5069,1.7071 -11.5795,1.4852 -13.4256,-0.4213 -38.2043,-4.3028 -68.0232,-10.6555 -24.1124,-5.1371 -30.2531,-7.3859 -30.1491,-11.0413 0.1192,-4.1923 16.9345,-24.3889 53.534,-64.2985 9.0235,-9.8396 19.9225,-22.0089 31.5142,-35.1871 57.5484,-65.4249 191.4917,-204.9362 327.5863,-341.2038 56.5794,-56.6514 66.7775,-67.3268 74.2616,-77.7371 2.5896,-3.602 5.8269,-10.036 7.4565,-14.8194 1.1776,-3.4565 1.1994,-3.6087 1.216,-8.4797 0.03,-8.6104 -1.1777,-14.7725 -9.6213,-49.12 -8.0742,-32.8444 -12.1273,-47.523 -15.6459,-56.6632 -2.5264,-6.5628 -3.9636,-8.7758 -5.7008,-8.7781 -3.1545,0 -18.2814,13.1885 -50.6066,44.1361 -56.305,53.9054 -175.0586,172.5015 -238.7423,238.4257 -31.7985,32.9172 -44.4458,46.3391 -91.6642,97.2794 -9.0543,9.768 -22.2365,23.9521 -29.2938,31.5201 -19.334,20.7332 -26.9817,29.1245 -49.4326,54.24 -15.3111,17.1283 -33.0376,36.7475 -48.0217,53.149 -13.0484,14.2827 -30.177,33.3254 -44.2905,49.2402 -6.1599,6.9459 -13.2722,14.9379 -15.8051,17.76 -21.0815,23.4878 -29.2128,30.3551 -38.9147,32.8656 -2.3627,0.6114 -3.656,0.7406 -7.2,0.7195 -3.8906,-0.023 -4.7495,-0.1396 -8.64,-1.1711 -7.3632,-1.9522 -15.951,-5.1858 -38.72,-14.579 -17.015,-7.0194 -22.7798,-9.6923 -25.9466,-12.0302 -1.8205,-1.3439 -2.6752,-3.005 -2.38,-4.6251 0.2822,-1.5488 2.3562,-5.3757 4.2449,-7.8325 6.1053,-7.942 21.4188,-25.4756 70.4795,-80.6974 17.5132,-19.7125 36.8065,-41.4565 42.874,-48.32 40.8108,-46.1644 59.9985,-67.3599 90.2369,-99.6784 59.9062,-64.0272 129.6095,-135.3881 295.2197,-302.2401 66.3644,-66.8621 109.6919,-110.8267 119.7526,-121.5139 12.8724,-13.6738 24.8016,-28.1424 28.9818,-35.1509 3.7402,-6.2709 4.4238,-9.5552 3.0951,-14.8695 -2.6396,-10.5579 -11.5187,-34.6264 -22.0198,-59.6895 -4.8282,-11.5233 -9.2687,-23.0973 -10.6109,-27.6567 -0.57,-1.936 -1.4437,-4.42 -1.9417,-5.52 l -0.9054,-2 -1.3801,3e-4 c -6.589,0 -28.1079,18.2353 -89.6908,75.9997 -50.5631,47.428 -97.9019,93.407 -156.3292,151.839 -101.3275,101.3355 -200.5091,205.2817 -296.0204,310.2411 -38.4291,42.2302 -71.7335,79.8577 -130.855,147.8399 -28.3883,32.6429 -37.9455,43.2345 -48.7992,54.0809 -7.2368,7.2318 -8.8974,8.5921 -10.436,8.5484 -4.0152,-0.1142 -35.5851,-20.2216 -57.084,-36.3578 -8.0427,-6.0365 -11.6854,-9.3009 -11.6854,-10.4717 0,-3.1011 73.7682,-90.4034 110.5348,-130.8143 9.1497,-10.0567 24.9945,-27.828 40.8218,-45.7854 17.9733,-20.3922 44.937,-50.1532 58.7046,-64.7947 23.1199,-24.5874 32.0711,-34.1315 52.9768,-56.4854 31.9957,-34.2122 51.3623,-54.6276 76.642,-80.7925 72.8111,-75.3611 158.5589,-161.0625 267.6811,-267.5366 45.5476,-44.4424 59.9445,-58.1483 93.4389,-88.955 18.2601,-16.7949 25.3062,-23.4935 36.6594,-34.8516 6.1707,-6.1733 11.8947,-12.1386 12.72,-13.256 1.8673,-2.5282 1.9098,-3.3661 0.3845,-7.5796 -10.1946,-28.1632 -46.0918,-85.14662 -81.7364,-129.74872 -19.8037,-24.7803 -51.8195,-59.5653 -86.1513,-93.6027 -22.3882,-22.1962 -36.7161,-35.4212 -51.4762,-47.5138 -10.61,-8.6925 -18.173,-15.6649 -22.3921,-20.6435 -3.8033,-4.4879 -4.1198,-5.4152 -2.7618,-8.0906 2.9413,-5.7946 16.0277,-18.4742 29.1539,-28.2477 8.4182,-6.2681 14.2243,-9.5764 18.8233,-10.7256 2.1335,-0.5332 2.2503,-0.5292 5.12,0.1725 16.6018,4.0599 86.1167,37.9497 134.1367,65.394 65.4673,37.4158 128.2329,82.9028 184.634,133.8066 23.3906,21.1107 51.5626,49.2797 71.2256,71.218 61.1307,68.20432 109.5142,144.23142 154.462,242.71282 20.9817,45.9714 36.9815,93.862 59.6018,178.4 14.0007,52.3242 26.599,117.5991 36.1304,187.2 11.2124,81.8751 19.9921,170.5911 35.7064,360.8 31.5298,256.3569 46.2518,493.0689 122.8209,694.7201 18.1061,47.5247 45.4106,114.1281 51.5862,125.8333 0.9498,1.8003 2.538,5.3283 3.5292,7.84 4.7111,11.9377 17.9102,38.7951 25.3513,51.5848 1.3242,2.2759 2.8835,5.1682 3.4653,6.4273 0.5817,1.259 2.0187,3.6276 3.1933,5.2635 3.6307,5.0562 8.2215,12.7831 18.5136,31.1608 12.4432,22.2186 22.1392,38.442 36.6544,61.3303 8.7813,13.8467 13.7428,21.8017 17.8627,28.64 4.2651,7.079 7.3491,11.4561 13.1056,18.6005 4.9261,6.1137 8.7318,11.1397 13.0105,17.1818 4.0535,5.724 6.1564,8.2316 7.2495,8.6442 0.5642,0.213 0.9415,0.6344 1.049,1.1718 0.5708,2.8538 15.2293,22.047 34.3589,44.988 25.5159,30.5996 62.4387,70.0485 114.6412,122.4843 40.5847,40.7662 71.9443,70.7633 96.0082,91.8371 43.2951,37.9152 123.3129,98.3286 162.0795,122.3699 8.0113,4.9682 22.4519,14.1407 41.5622,26.3998 61.9231,39.7231 105.3862,65.9637 132.8383,80.2004 25.0407,12.9862 26.8205,13.9895 29.264,16.4961 1.8904,1.9391 1.9156,2.988 0.1286,5.3522 -2.4841,3.2865 -10.6611,11.7017 -20.6314,21.2324 -17.5426,16.7692 -20.4132,19.4484 -47.3212,44.1666 -22.8306,20.9727 -38.9647,35.899 -59.8391,55.3596 -68.4361,63.8011 -126.849,117.2382 -156.0009,142.7124 -3.8692,3.3811 -8.5877,7.2651 -9.803,8.0694 -1.0339,0.6842 -4.0463,1.7089 -4.917,1.6725 -0.176,-0.01 -1.4,-0.3374 -2.72,-0.7336 z"
         style="fill:#b33232;stroke-width:0.31999999" />
      <path
         id="path3899"
         d="m -2466.9891,3231.5443 c -12.7342,-8.1743 -21.7944,-14.2159 -26.9759,-17.9884 -13.6179,-9.9147 -19.1328,-16.414 -18.1772,-21.4217 0.4784,-2.5076 6.3326,-9.0029 24.1653,-26.8118 27.0547,-27.0188 75.5431,-72.56 129.7882,-121.8997 28.5859,-26.0008 91.4624,-84.4179 121.7548,-113.1195 33.882,-32.1028 40.9156,-38.9175 96.2379,-93.2422 32.0981,-31.5193 42.569,-42.0482 46.0069,-46.2614 l 1.28,-1.5687 v -3.086 c 0,-2.9153 -0.065,-3.2179 -1.1832,-5.4694 -2.3333,-4.6998 -7.6233,-10.2925 -20.0968,-21.2463 -19.7148,-17.3129 -40.7197,-33.6845 -48.3473,-37.6828 -3.7619,-1.9719 -5.3068,-1.4754 -12.0819,3.8834 -13.5266,10.6989 -37.8329,33.4154 -95.8947,89.6223 -34.6945,33.586 -38.3409,37.0635 -79.3621,75.6836 -40.8714,38.4791 -44.5131,41.893 -60.954,57.1412 -49.3376,45.7585 -92.5373,84.7814 -134.24,121.2609 -35.3886,30.9564 -53.601,45.8131 -60.1575,49.0736 -5.0723,2.5224 -6.8425,1.8953 -11.1464,-3.9487 -2.7122,-3.6827 -11.7326,-12.7856 -19.4161,-19.5936 -6.629,-5.8737 -12.8297,-12.1833 -15.604,-15.8781 -2.6295,-3.5021 -4.6646,-7.6942 -4.6939,-9.6691 -0.043,-2.9144 2.8611,-6.2612 21.8937,-25.2287 35.4933,-35.3721 78.478,-75.8688 137.6042,-129.6397 62.2236,-56.5877 118.2189,-108.8804 164.3056,-153.4414 44.2703,-42.8047 68.8717,-68.1471 82.0096,-84.48 5.4524,-6.7784 7.15,-10.2615 6.1629,-12.6447 -0.2177,-0.5257 -2.1057,-2.6042 -4.1955,-4.619 -9.2812,-8.9483 -32.4207,-26.1329 -43.9799,-32.6619 -2.1025,-1.1876 -4.8143,-2.9542 -6.0264,-3.926 -5.6976,-4.5677 -17.2768,-10.4329 -24.5258,-12.4227 -2.8954,-0.7949 -7.2385,-0.7232 -9.7184,0.1602 -6.7985,2.4219 -12.1209,6.9262 -40.6721,34.4199 -34.6254,33.3429 -58.0648,55.6298 -90.8858,86.4169 -44.9383,42.1534 -66.5593,62.153 -119.3473,110.3973 -18.5954,16.9947 -27.7613,25.3989 -42.5837,39.0447 -6.5027,5.9866 -18.0871,16.5706 -25.7431,23.52 -38.9412,35.3474 -74.0091,67.2786 -77.9028,70.9346 -6.6084,6.2049 -7.7873,7.2217 -8.129,7.0105 -0.1725,-0.1066 -3.0241,-3.5409 -6.337,-7.6318 -7.5401,-9.3109 -10.8738,-13.0168 -12.4598,-13.851 -1.2636,-0.6646 -1.4215,-0.8941 -2.7413,-3.9824 -0.5556,-1.3 -1.6102,-2.6258 -4.0657,-5.111 -1.8236,-1.8456 -3.823,-4.1516 -4.4432,-5.1246 -0.6202,-0.973 -3.7535,-5.297 -6.9628,-9.609 -7.0291,-9.4444 -10.7886,-14.9348 -12.6722,-18.507 l -1.4063,-2.667 7.68,-7.5285 c 13.2557,-12.9941 32.9293,-31.4499 57.92,-54.3344 21.2603,-19.4685 34.6911,-31.8304 40.16,-36.964 5.7463,-5.3939 15.1023,-13.9163 32.32,-29.4407 35.1282,-31.6732 73.5681,-67.3326 119.68,-111.0231 27.9766,-26.5075 65.3227,-63.6149 92.7791,-92.1859 10.901,-11.3435 15.058,-15.9735 18.8925,-21.0422 2.732,-3.6114 3.167,-4.3467 2.8841,-4.8752 -0.566,-1.0577 -4.837,-4.1463 -9.155,-6.6204 -5.2576,-3.0126 -30.3887,-15.5809 -42.6807,-21.345 -23.6589,-11.0945 -52.0348,-23.6528 -52.6449,-23.2989 -0.3688,0.2139 -12.1281,11.0531 -64.318,59.2855 -10.5616,9.7607 -22.7282,20.9868 -27.0369,24.9468 -4.3086,3.96 -11.9429,11.016 -16.965,15.68 -10.2286,9.4992 -28.5007,26.2876 -51.1952,47.0378 -8.36,7.6439 -23.048,21.1093 -32.64,29.9233 -48.4397,44.5105 -104.9025,94.1441 -128.16,112.659 -7.8788,6.2722 -10.7634,8.1429 -12.5472,8.1369 -1.4273,0 -4.2088,-1.7646 -4.4266,-2.8005 -0.2936,-1.3967 -0.6006,-1.7897 -2.0153,-2.5805 -1.0756,-0.6013 -1.2978,-0.8776 -1.1579,-1.44 0.1738,-0.6986 -0.6018,-2.0668 -2.7517,-4.8544 -0.6808,-0.8828 -0.9397,-1.5201 -0.8365,-2.0597 0.1898,-0.9932 -0.049,-1.6219 -0.617,-1.6219 -0.9707,0 -3.6733,-4.5581 -4.4104,-7.4385 -0.3377,-1.3197 -0.5874,-1.708 -1.1923,-1.8548 -0.632,-0.1534 -0.7483,-0.358 -0.6686,-1.1765 0.072,-0.7363 -0.091,-1.1219 -0.6319,-1.501 -0.5526,-0.3871 -0.7063,-0.7665 -0.637,-1.5716 0.071,-0.8282 -0.1965,-1.4433 -1.2194,-2.7995 -0.9152,-1.2135 -1.2596,-1.9462 -1.1411,-2.4275 0.1321,-0.5364 -0.078,-0.8357 -0.9487,-1.3492 -0.6152,-0.3629 -1.3191,-1.1327 -1.5644,-1.7107 -0.2453,-0.5779 -1.5664,-3.7867 -2.9358,-7.1307 -1.3694,-3.344 -4.2698,-10.1605 -6.4455,-15.1477 -4.5204,-10.3619 -5.5476,-13.1923 -5.7676,-15.8923 -0.3318,-4.0727 1.1116,-6.3442 7.9477,-12.5068 2.534,-2.2843 8.9258,-8.0368 14.2041,-12.7833 9.7302,-8.7498 40.2104,-36.4274 73.1263,-66.4025 9.9457,-9.0571 20.3137,-18.4809 23.0399,-20.9418 16.634,-15.0147 41.2854,-37.9133 69.7569,-64.7971 38.5232,-36.3748 66.3901,-64.5336 73.8188,-74.592 2.8266,-3.827 3.0166,-5.1086 1.0122,-6.8243 -3.816,-3.2663 -15.5994,-8.8947 -25.8063,-12.3264 -4.9024,-1.6483 -14.3551,-4.0786 -19.5847,-5.0353 -2.0738,-0.3795 -3.3225,-0.7863 -3.9289,-1.2802 -0.9838,-0.8013 -5.9421,-2.4837 -11.1111,-3.77 -3.8501,-0.9581 -11.1068,-3.3024 -14.3041,-4.6208 -2.9405,-1.2126 -5.3316,-1.7512 -6.8624,-1.5459 -1.2244,0.1642 -1.2682,0.1387 -1.1727,-0.6815 0.098,-0.8402 0.072,-0.8521 -1.8449,-0.8521 -1.6968,0 -2.043,-0.1083 -2.72,-0.8507 -0.8743,-0.9586 -2.6565,-1.5754 -6.8559,-2.3729 -1.584,-0.3008 -3.6542,-0.8867 -4.6006,-1.302 -4.4327,-1.9454 -11.2496,-1.6622 -20.772,0.8629 -6.4308,1.7053 -11.4712,4.2568 -18.9474,9.5915 -15.5806,11.1176 -37.0016,29.6071 -70.2443,60.6312 -39.3374,36.712 -73.6267,66.5514 -89.7872,78.1351 -5.981,4.2871 -8.1887,5.1395 -14.1242,5.4534 -2.7818,0.1471 -3.7067,0.078 -4.8598,-0.3622 -1.4116,-0.5391 -1.4327,-0.5698 -2.39,-3.4851 -0.5313,-1.6177 -1.8428,-6.0159 -2.9144,-9.7738 -2.0083,-7.042 -5.2129,-17.5785 -9.615,-31.6128 -5.3371,-17.0154 -11.5546,-40.5159 -10.9764,-41.4878 2.07,-3.4798 16.5992,-18.3191 52.4081,-53.5267 24.8345,-24.4177 36.7797,-36.9326 38.7587,-40.6073 0.6145,-1.1411 0.6144,-1.1613 -0.018,-2.3392 -0.3991,-0.7435 -1.2702,-1.5659 -2.328,-2.1977 -3.4544,-2.0633 -15.6641,-5.5801 -28.0697,-8.085 -20.1358,-4.066 -47.8138,-7.7109 -58.5522,-7.7109 -12.8049,0 -24.7637,-5.1432 -29.9228,-12.8688 -3.1205,-4.6731 -6.055,-18.3305 -12.8083,-59.6112 -6.829,-41.7439 -9.6786,-58.8066 -10.8634,-65.0496 -1.3994,-7.3732 -3.3723,-19.8207 -3.6882,-23.2705 -0.1974,-2.1556 -1.1066,-8.4823 -1.7935,-12.48 -0.296,-1.7224 -1.4523,-6.8878 -2.7222,-12.16 -0.2544,-1.056 -0.9599,-6.24 -1.5679,-11.52 -0.608,-5.28 -1.6816,-14.568 -2.3858,-20.64 -2.8235,-24.3457 -5.5842,-51.3734 -6.4066,-62.72 -0.6611,-9.1208 -1.2854,-22.8514 -1.0493,-23.0781 0.4908,-0.4713 8.7038,-1.9206 12.8804,-2.2729 5.7186,-0.4824 55.8037,-0.4573 72.64,0.036 19.1057,0.5603 71.8282,3.3001 96.3199,5.0055 3.784,0.2634 15.952,1.1936 27.04,2.0669 11.088,0.8734 26.928,2.1015 35.2,2.7292 29.4441,2.2342 74.6348,6.5634 115.36,11.0515 15.3516,1.6918 63.8974,7.7777 69.9639,8.7709 2.6159,0.4283 9.5081,1.5145 15.3161,2.4139 11.9369,1.8485 32.0365,5.2129 46.6001,7.8004 8.294,1.4735 18.7589,3.0542 23.8203,3.5979 0.8416,0.09 1.649,0.4581 2.2885,1.0422 1.1851,1.0824 3.1825,1.6232 10.1478,2.7473 2.7928,0.4508 6.4606,1.2489 8.1506,1.7737 6.4892,2.015 39.7573,9.3474 50.0675,11.0351 0.7196,0.1178 1.5507,0.543 1.992,1.0192 0.7102,0.7663 0.8841,0.8035 2.7953,0.5989 1.968,-0.2108 2.0574,-0.1886 2.6048,0.6467 0.5615,0.8571 0.5922,0.8633 3.2982,0.6723 2.5425,-0.1794 2.7929,-0.141 3.6194,0.5545 1.7518,1.474 12.2985,4.3913 16.1751,4.4742 1.2537,0.027 2.4887,0.2223 2.7443,0.4345 2.1618,1.7941 17.6556,6.1597 21.8612,6.1597 0.7892,0 1.4349,0.1416 1.4349,0.3147 0,1.2148 14.1826,5.8672 19.2221,6.3056 1.7364,0.151 2.1538,0.3008 2.4,0.8613 0.2495,0.5681 0.6181,0.6938 2.2669,0.7729 1.7227,0.083 1.9914,0.1827 2.1484,0.8 0.1554,0.611 0.7491,0.8435 4.431,1.7351 2.3384,0.5663 7.6356,2.0265 11.7716,3.245 8.6063,2.5354 13.7795,3.6928 15.2628,3.4147 0.8296,-0.1556 1.0915,-0.063 1.3874,0.4898 0.5153,0.9629 3.1178,2.0661 7.0854,3.0036 1.8738,0.4428 3.9312,1.1143 4.572,1.4924 0.9173,0.5413 1.467,0.6461 2.5845,0.4929 1.1752,-0.1611 1.6173,-0.06 2.5707,0.5869 2.3742,1.6111 19.1764,7.7085 23.311,8.4594 1.0416,0.1891 2.1223,0.5506 2.4015,0.8033 1.8442,1.6691 30.5152,12.0801 34.5993,12.5638 1.0041,0.1189 1.5854,0.3425 1.5854,0.6097 0,1.0048 6.6514,3.8938 9.7548,4.237 1.5733,0.174 1.9382,0.3267 2.0355,0.8519 0.2274,1.2271 0.7119,1.4971 2.2955,1.2792 1.3706,-0.1885 1.5359,-0.1358 2.0534,0.6539 0.5028,0.7674 0.6983,0.8372 1.8364,0.6552 1.0835,-0.1733 1.4253,-0.075 2.2891,0.656 2.7359,2.3163 20.4602,9.2204 24.485,9.5375 1.2394,0.098 1.5136,0.239 1.6591,0.8552 0.2161,0.9155 1.9748,1.835 11.1912,5.8507 3.784,1.6487 10.336,4.6144 14.56,6.5904 13.707,6.4122 20.6584,9.2819 22.4839,9.2819 0.5228,0 1.1041,0.3101 1.5041,0.8022 0.8952,1.1013 8.138,5.0324 18.342,9.9553 39.303,18.9616 68.1131,34.7815 103.0683,56.5955 7.3951,4.615 10.571,6.2471 12.1564,6.2471 0.3359,0 0.6823,0.2741 0.77,0.6091 0.4736,1.811 18.4507,14.0061 26.2921,17.8357 1.5712,0.7673 3.1912,1.3952 3.6,1.3952 0.5507,0 0.7432,0.1809 0.7432,0.6988 0,1.1192 2.5061,3.2316 10.4107,8.7756 22.7258,15.9387 33.6853,23.1851 36.0132,23.812 0.6889,0.1855 1.2967,0.5774 1.4,0.9026 0.2555,0.805 6.0305,5.546 14.0262,11.5146 3.7345,2.7877 12.8379,9.58 20.2299,15.094 58.9927,44.0048 95.9252,76.4591 151.4546,133.0899 54.2044,55.2797 96.3337,101.3504 132.588,144.9925 14.545,17.5089 20.1304,24.5758 42.3631,53.6 24.2004,31.5927 31.5253,41.5007 41.7556,56.48 6.2079,9.0897 13.6494,19.555 20.4785,28.8 13.989,18.9377 26.6376,39.1892 34.8762,55.84 3.6732,7.4236 5.1274,11.3191 5.1164,13.7055 -0.024,5.2008 -5.3118,12.0621 -25.4365,33.005 -12.6176,13.1307 -20.2706,21.2032 -32.3159,34.0874 -18.5542,19.8466 -25.6426,27.259 -59.6735,62.4009 -60.646,62.6261 -104.2097,107.025 -125.4364,127.8412 -15.4065,15.1085 -20.476,19.68 -21.8237,19.68 -0.4124,0 -1.6728,-1.0116 -3.2891,-2.64 -5.3198,-5.3596 -11.4062,-13.1443 -36.2213,-46.3288 -38.2803,-51.1911 -56.9156,-74.9148 -99.2821,-126.3912 -30.9762,-37.6369 -45.3479,-54.5559 -67.5401,-79.5111 -20.5023,-23.0549 -31.8702,-35.2951 -44.3021,-47.7017 -11.6372,-11.6135 -15.6633,-14.7382 -19.7803,-15.3517 -3.28,-0.4887 -7.6645,1.6904 -14.1714,7.0436 -6.311,5.192 -11.6887,10.3064 -39.36,37.4325 -28.9575,28.387 -43.0968,42.1313 -73.28,71.2328 -54.1282,52.1885 -203.4805,192.9612 -230.8829,217.6197 -21.1316,19.0155 -32.2043,28.4357 -46.3971,39.4727 -5.192,4.0375 -13.0754,10.19 -17.5187,13.6721 -4.4432,3.4821 -8.1152,6.323 -8.16,6.313 -0.045,-0.01 -4.1133,-2.6063 -9.0413,-5.7697 z"
         style="fill:#218020;stroke-width:0.31999999" />
    </g>
  </g>
</svg>
